<?xml version="1.0" encoding="UTF-8" standalone="no"?>
<svg
   width="297"
   height="210"
   id="hills"
   version="1.1"
   sodipodi:docname="hills.svg"
   xml:space="preserve"
   inkscape:version="1.4.2 (f4327f4, 2025-05-13)"
   xmlns:inkscape="http://www.inkscape.org/namespaces/inkscape"
   xmlns:sodipodi="http://sodipodi.sourceforge.net/DTD/sodipodi-0.dtd"
   xmlns:xlink="http://www.w3.org/1999/xlink"
   xmlns="http://www.w3.org/2000/svg"
   xmlns:svg="http://www.w3.org/2000/svg"><defs
     id="defs10"><linearGradient
       id="linearGradient1"
       inkscape:collect="always"><stop
         style="stop-color:#799800;stop-opacity:1;"
         offset="0"
         id="stop1" /><stop
         style="stop-color:#304900;stop-opacity:1;"
         offset="1"
         id="stop2" /></linearGradient><linearGradient
       inkscape:collect="always"
       xlink:href="#linearGradient1"
       id="linearGradient2"
       x1="218.31348"
       y1="44.387867"
       x2="170.5573"
       y2="269.06299"
       gradientUnits="userSpaceOnUse" /></defs><sodipodi:namedview
     id="namedview10"
     pagecolor="#ffffff"
     bordercolor="#000000"
     borderopacity="0.25"
     inkscape:showpageshadow="2"
     inkscape:pageopacity="0.0"
     inkscape:pagecheckerboard="0"
     inkscape:deskcolor="#d1d1d1"
     inkscape:zoom="2.0375"
     inkscape:cx="67.97546"
     inkscape:cy="119.0184"
     inkscape:window-width="1920"
     inkscape:window-height="1017"
     inkscape:window-x="1592"
     inkscape:window-y="-8"
     inkscape:window-maximized="1"
     inkscape:current-layer="hills" /><path
     fill="#000000"
     d="m 259.80773,4.0864286 c 4.52906,6.7935824 5.51554,16.4164064 5.37826,24.9097924 -0.0167,1.033195 -0.35185,2.482488 -0.71984,3.777513 -0.73116,-0.334016 -1.5413,-0.522255 -2.39389,-0.522255 -0.43026,0 -0.8492,0.04897 -1.25356,0.138983 z m 2.26453,30.7126414 c 1.81304,0 3.25526,1.442223 3.25526,3.255258 0,1.813034 -1.44222,3.255254 -3.25526,3.255254 -1.81304,0 -3.25526,-1.44222 -3.25526,-3.255254 0,-1.813035 1.44222,-3.255258 3.25526,-3.255258 z m -5.77454,3.826062 c 0.12696,1.28143 0.67596,2.44399 1.50478,3.34625 l -24.01021,15.029961 c 3.619,-7.31924 11.45907,-12.984801 18.88332,-17.112751 0.90099,-0.501023 2.31915,-0.934819 3.62225,-1.26346 z m 11.30791,1.17104 25.02019,13.277631 c -8.14805,0.52565 -16.97504,-3.43119 -24.262,-7.797051 -0.88798,-0.53188 -1.97438,-1.54781 -2.91274,-2.51504 1.00488,-0.72493 1.77227,-1.76165 2.15455,-2.96554 z m -7.90602,3.54823 c 0.72563,0.32836 1.52855,0.51278 2.37265,0.51278 0.8441,0 1.64702,-0.18428 2.37266,-0.51236 l -0.27237,57.876048 -6.66389,1.1668 z"
     id="path1-0-4"
     style="fill:#ececec;fill-opacity:1;stroke-width:0.141533"
     sodipodi:nodetypes="cscsccsssssccccccccccccscccc" /><path
     fill="#000000"
     d="m 30.293948,27.177977 c 4.60852,6.91278 5.61231,16.704453 5.47262,25.346876 -0.017,1.05131 -0.35802,2.52603 -0.73247,3.84379 -0.74399,-0.33988 -1.56833,-0.53142 -2.43589,-0.53142 -0.43781,0 -0.8641,0.0498 -1.27555,0.14142 z m 2.30426,31.251536 c 1.84485,0 3.31238,1.46752 3.31238,3.31237 0,1.84485 -1.46753,3.31237 -3.31238,3.31237 -1.84485,0 -3.31237,-1.46752 -3.31237,-3.31237 0,-1.84485 1.46752,-3.31237 3.31237,-3.31237 z m -5.87586,3.89319 c 0.12918,1.30392 0.68782,2.48687 1.53118,3.40497 L 3.8220376,81.021333 c 3.6825,-7.44766 11.6601304,-13.21262 19.2146404,-17.413 0.91681,-0.50982 2.35985,-0.95123 3.68581,-1.28563 z m 11.50631,1.19158 25.45919,13.5106 c -8.29101,0.53487 -17.27287,-3.49138 -24.68769,-7.93386 -0.90355,-0.54121 -2.00902,-1.57496 -2.96385,-2.55916 1.02252,-0.73765 1.80337,-1.79257 2.19235,-3.01758 z m -8.04474,3.61049 c 0.73837,0.33412 1.55538,0.52177 2.41429,0.52177 0.85891,0 1.67592,-0.1875 2.41429,-0.52133 l 0.4147,50.825817 -6.28538,-1.2548 z"
     id="path1-0"
     style="fill:#cccccc;fill-opacity:1;stroke-width:0.144017"
     sodipodi:nodetypes="cscsccsssssccccccccccccscccc" /><path
     fill="#000000"
     d="m 66.043588,55.108173 c 3.91083,5.86624 4.76265,14.17553 4.64411,21.50955 -0.0144,0.89216 -0.30382,2.14362 -0.62158,3.26187 -0.63136,-0.28842 -1.3309,-0.45096 -2.06712,-0.45096 -0.37153,0 -0.73328,0.0423 -1.08244,0.12001 z m 1.95541,26.52029 c 1.56556,0 2.81091,1.24535 2.81091,2.81091 0,1.56555 -1.24535,2.81091 -2.81091,2.81091 -1.56555,0 -2.8109,-1.24536 -2.8109,-2.81091 0,-1.56556 1.24535,-2.81091 2.8109,-2.81091 z m -4.9863,3.3038 c 0.10962,1.10651 0.58369,2.11037 1.29937,2.88949 l -20.73275,12.978307 c 3.125,-6.320137 9.89489,-11.212327 16.3057,-14.776797 0.77801,-0.43265 2.00258,-0.80722 3.1278,-1.091 z m 9.76435,1.01119 21.60486,11.46519 c -7.03581,0.4539 -14.65789,-2.96281 -20.95016,-6.73273 -0.76676,-0.45928 -1.70487,-1.33653 -2.51515,-2.17173 0.86772,-0.62597 1.53035,-1.52119 1.86045,-2.56073 z m -6.82683,3.06388 c 0.62658,0.28354 1.3199,0.44278 2.04878,0.44278 0.72888,0 1.4222,-0.15912 2.04879,-0.44241 l 0.35192,43.131187 -5.33383,-1.06482 z"
     id="path1-0-9"
     style="fill:#bbbbbb;fill-opacity:1;stroke-width:0.122214"
     sodipodi:nodetypes="cscsccsssssccccccccccccscccc" /><path
     fill="#0E538C"
     d="m 154.23988,161.1475 c 0,0.30026 -0.01,0.60051 -0.0292,0.91189 -0.0282,0.58939 -0.0973,1.17879 -0.19353,1.79042 -0.0204,0.14456 -0.0399,0.28914 -0.0778,0.43371 -0.0195,0.18904 -0.0594,0.38921 -0.10698,0.57826 -0.0778,0.35586 -0.16534,0.71171 -0.26356,1.06758 -0.038,0.15569 -0.0778,0.31138 -0.12546,0.45594 -0.0399,0.14457 -0.0875,0.27802 -0.12741,0.42259 -0.0486,0.1668 -0.10601,0.33361 -0.16533,0.4893 -0.16533,0.47819 -0.34039,0.95637 -0.54463,1.44568 -0.0885,0.23353 -0.18478,0.45594 -0.28204,0.67836 -0.96282,2.13516 -2.25632,4.30367 -3.88048,6.4833 -0.17506,0.24465 -0.35887,0.4893 -0.5456,0.72284 -0.73914,0.96749 -1.55608,1.93499 -2.42068,2.90248 -0.42792,0.47819 -0.87433,0.96749 -1.34212,1.44568 -0.20424,0.22241 -0.4182,0.44482 -0.63217,0.65611 -0.97254,0.98973 -2.01318,1.97946 -3.10146,2.96919 -0.53588,0.4782 -1.07953,0.95638 -1.64361,1.43457 -3.64707,3.12489 -7.85822,6.20528 -12.5751,9.20784 -0.35984,0.23354 -0.72941,0.46708 -1.09898,0.68948 -6.11833,3.81437 -13.02344,7.48417 -20.57919,10.89818 -0.52518,0.24466 -1.05036,0.47819 -1.58624,0.71173 -0.5631,0.25578 -1.13788,0.51154 -1.72141,0.75619 -0.70024,0.30026 -1.390752,0.60052 -2.100722,0.88965 -3.22887,1.36784 -6.56472,2.66895 -9.9881,3.93669 -0.74886,0.2669 -1.50843,0.54492 -2.26605,0.81181 -2.14933,0.76732 -4.33758,1.5124 -6.55499,2.22411 -0.84515,0.27802 -1.69224,0.54491 -2.54712,0.81182 -0.28301,0.10005 -0.57478,0.18904 -0.86654,0.26689 -0.92393,0.28913 -1.84785,0.56715 -2.77178,0.84516 -2.13961,0.63388 -4.29867,1.24551 -6.48692,1.8349 -0.69148,0.18905 -1.38102,0.37809 -2.08223,0.54491 v 0.0114 c -2.45958,0.64499 -4.95029,1.25663 -7.45947,1.8349 a 10.036734,11.476455 0 0 0 9.10211,6.63899 H 1.0415776 c -5.54258,0 -10.03576,-5.13771 -10.03576,-11.47646 v -98.3283 c 0,-6.33875 4.49318,-11.47645 10.03576,-11.47645 H 12.850298 c 17.66153,0 35.32308,1.95722 52.68312,5.78271 0.77902,0.16681 1.55609,0.34474 2.33413,0.53378 0.67009,0.14458 1.33142,0.30026 1.99373,0.46707 1.25459,0.30025 2.50919,0.61164 3.75405,0.93413 1.08829,0.27802 2.18824,0.55603 3.27653,0.85628 0.0982,0.0223 0.19548,0.0445 0.29274,0.0779 1.11843,0.30026 2.22617,0.61163 3.3446,0.93413 1.19624,0.33362 2.39345,0.68947 3.58871,1.05646 0.48628,0.14457 0.97256,0.28913 1.46856,0.44483 0.71969,0.22241 1.4491,0.44482 2.16782,0.67834 0.32094,0.10006 0.64188,0.20019 0.96282,0.31139 1.52691,0.4893 3.05479,1.00084 4.571,1.52351 0.56408,0.20019 1.12815,0.38923 1.68154,0.5894 0.20521,0.0667 0.40847,0.13344 0.60395,0.21129 0.56408,0.20017 1.13789,0.40034 1.70197,0.61163 1.76032,0.63388 3.519662,1.28999 5.280952,1.97947 1.35185,0.52267 2.70273,1.05645 4.05555,1.61248 0.13713,0.0445 0.27134,0.10005 0.41819,0.16681 1.03188,0.41146 2.06181,0.84517 3.08299,1.28999 0.51545,0.21129 1.02215,0.42259 1.52691,0.645 1.39075,0.60051 2.77177,1.21214 4.14307,1.8349 1.28376,0.57826 2.55878,1.16766 3.83185,1.77929 0.58353,0.2669 1.16707,0.54491 1.74087,0.83405 0.78777,0.36698 1.56484,0.74508 2.34385,1.1343 0.70899,0.34473 1.40923,0.7006 2.11044,1.05646 0.5242,0.26688 1.05035,0.53378 1.56484,0.80068 0.86653,0.44482 1.73113,0.88964 2.58698,1.3567 1.09996,0.56715 2.18824,1.15655 3.2775,1.75707 1.4384,0.77843 2.8593,1.57912 4.27825,2.39092 l 1.4209,0.81181 2.88848,1.64584 c 3.47104,1.97947 6.16598,4.14799 8.14999,6.46107 0.1556,0.17792 0.30246,0.35585 0.44737,0.53379 2.59963,3.22497 3.81532,6.71684 3.81532,10.37551 z"
     id="path5"
     style="fill:#225500;stroke-width:1.03997" /><path
     fill="#9adb05"
     d="m 95.460618,173.03401 c 0.46464,-0.0967 0.92155,-0.20622 1.37975,-0.31577 -0.4582,0.10955 -0.91511,0.21911 -1.37975,0.32222 z"
     id="path6"
     style="stroke-width:0.644439" /><path
     fill="#2A94F4"
     d="m 309.28254,103.3808 v 106.68924 c 0,5.50193 -3.73342,9.9614 -8.3396,9.9614 H 87.926878 c -4.60535,0 -8.33878,-4.45947 -8.33878,-9.9614 0,-4.46912 2.46471,-8.25291 5.85873,-9.51738 h 0.009 c 10.12469,-7.95368 31.612082,-25.84944 35.976632,-29.49809 0.18586,-0.14478 0.3394,-0.27026 0.46062,-0.37644 l 0.24162,-0.2027 a 0.2181871,0.26061789 0 0 0 0.0816,-0.0579 143.95904,171.95472 0 0 0 20.97829,-20.73359 161.67987,193.12171 0 0 1 54.10231,-42.57725 c 17.97214,-8.590795 37.83525,-13.581134 58.97435,-13.677671 0.21899,0 0.42829,-0.0096 0.64728,-0.0096 h 44.0245 c 0.17779,0 0.34749,0.0096 0.51719,0.01935 0.17051,0.0096 0.34021,0.02891 0.50991,0.05793 0.1697,0.02891 0.33051,0.05793 0.49213,0.09651 0.1697,0.03858 0.33132,0.07728 0.49294,0.125491 0.0242,0 0.0485,0.0096 0.0727,0.01935 0.17779,0.05793 0.35557,0.115863 0.53335,0.19305 0.0404,0 0.0727,0.01935 0.11313,0.03858 0.20203,0.08684 0.40405,0.173748 0.598,0.279924 0.21011,0.106189 0.42021,0.231668 0.61416,0.357147 0.20202,0.125479 0.40405,0.270272 0.59799,0.424705 0.19394,0.144794 0.37173,0.299227 0.54951,0.463323 0.36364,0.328181 0.69496,0.694991 1.00204,1.09073 0.15354,0.202702 0.30708,0.405403 0.44446,0.617768 0.12929,0.19305 0.25859,0.395752 0.38061,0.608105 0.26587,0.472974 0.50022,0.984553 0.70224,1.515447 0.0735,0.202702 0.14627,0.415055 0.21092,0.627408 v 0.0096 c 0.0323,0.09652 0.0647,0.193043 0.0808,0.289573 0.0647,0.21235 0.12121,0.4247 0.16162,0.63706 0.0485,0.22201 0.097,0.44401 0.1204,0.67567 0.0242,0.0965 0.0412,0.19305 0.0493,0.29924 0.0323,0.21235 0.0485,0.4247 0.0646,0.64671 a 7.5719001,9.0444056 0 0 1 0.0315,0.86874 z"
     id="path7"
     style="fill:url(#linearGradient2);stroke-width:0.883187" /><path
     fill="#00ca76"
     d="M 270.48372,94.805603 Z"
     id="path8"
     style="stroke-width:0.644439" /></svg>
