<svg xmlns="http://www.w3.org/2000/svg" width="79" height="597" viewBox="0 0 79 597" version="1.1"><path d="M 25 236.750 L 25 473.500 25 535.250 L 26 597 39 597 L 52 597 52 520.250 L 52 443.500 52 221.750 L 53.326 0 38.998 0 L 24.670 0 25 236.750" stroke="none" fill="#a71104" fill-rule="evenodd"/><path d="M 0 298.500 L 0 597 13.165 597 L 26.329 597 25 389.250 L 25 181.500 25 90.750 L 25 0 12.500 0 L 0 0 0 298.500" stroke="none" fill="#db726c" fill-rule="evenodd"/><path d="M 52 76.250 L 52 152 52 374.750 L 51.674 597 65.337 597 L 79 597 79 298.500 L 79 0 66 0 L 53 0 52 76.250" stroke="none" fill="#901109" fill-rule="evenodd"/></svg>