<?xml version="1.0" encoding="UTF-8" standalone="no"?>
<!-- Created with Inkscape (http://www.inkscape.org/) -->

<svg
   width="128.41112mm"
   height="42.493675mm"
   viewBox="0 0 128.41112 42.493675"
   version="1.1"
   id="svg1"
   xml:space="preserve"
   xmlns="http://www.w3.org/2000/svg"
   xmlns:svg="http://www.w3.org/2000/svg"><defs
     id="defs1" /><g
     id="layer1"
     transform="translate(-22.601887,-135.52285)"><g
       id="g2"
       transform="matrix(0.07303685,0,0,0.07303685,84.074954,154.27944)"
       style="stroke:none;stroke-width:1.36917;stroke-dasharray:none;stroke-dashoffset:0;stroke-opacity:1"><path
         id="path2"
         d="M 342.91617,298.00178 H 190.208 35.999833 v 12.99042 12.9975 l 175.865937,0.25471 175.60415,0.25472 z"
         style="fill:#901109;fill-opacity:1;stroke:none;stroke-width:1.36917;stroke-dasharray:none;stroke-dashoffset:0;stroke-opacity:1" /><path
         id="path16"
         d="m 342.91617,298.00178 44.55375,26.49735 h 0.26886 L 649.62025,180.21066 911.50173,35.915124 l 2.49761,-1.415078 2.49761,-1.422154 -45.49476,-0.02123 -45.50185,-0.0283 -54.99702,30.296828 -55.00409,30.296827 -75.99679,41.872173 -76.00385,41.86509 -62.00166,34.13876 -61.99458,34.14585 -47.54664,26.17894 -47.53955,26.17895 z"
         style="fill:#790e08;fill-opacity:1;stroke:none;stroke-width:1.36917;stroke-dasharray:none;stroke-dashoffset:0;stroke-opacity:1" /><path
         id="path3"
         style="fill:#a71104;fill-opacity:1;stroke:none;stroke-width:1.36917;stroke-dasharray:none;stroke-dashoffset:0;stroke-opacity:1"
         d="m 255.59169,245.48823 -0.99055,0.5448 -109.30066,-0.0212 -109.300647,-0.0283 v 26.00914 26.00914 H 189.90375 342.61193 Z" /><path
         id="path15"
         style="fill:#a71104;fill-opacity:1;stroke:none;stroke-width:1.36917;stroke-dasharray:none;stroke-dashoffset:0;stroke-opacity:1"
         d="m 255.59169,245.48823 87.02024,52.51355 h 1.20282 l 127.3429,-70.13128 127.3429,-70.12421 89.00135,-49.01123 89.00135,-49.011243 23.49738,-12.983343 23.49738,-12.983344 0.41744,-0.374996 0.41745,-0.382071 -91.91641,0.106131 -91.91642,0.113206 -192.94593,106.40682 z" /><path
         id="path4"
         style="fill:#d3524b;fill-opacity:1;stroke:none;stroke-width:1.36917;stroke-dasharray:none;stroke-dashoffset:0;stroke-opacity:1"
         d="m 205.80923,219.95314 -83.56037,0.0212 -87.246657,0.0283 V 325.00148 L 211.25021,324.75384 387.49822,324.5062 211.75256,324.25149 35.999833,323.99677 V 245.9835 l 109.300647,0.0283 106.66861,0.0212 z" /><path
         id="path14"
         style="fill:#db726c;fill-opacity:1;stroke:none;stroke-width:1.36917;stroke-dasharray:none;stroke-dashoffset:0;stroke-opacity:1"
         d="m 205.80923,219.95314 46.15986,26.07989 h 2.63205 l 191.9483,-105.65682 191.9483,-105.656827 0.95518,-0.856122 0.9481,-0.863198 -45.94759,0.03538 -45.95467,0.04245 -169.49809,93.437627 -169.49808,93.43762 z" /></g><g
       id="g22"
       transform="matrix(0.07303685,0,0,-0.07303685,84.074954,159.25994)"
       style="stroke:none;stroke-width:1.36917;stroke-dasharray:none;stroke-dashoffset:0;stroke-opacity:1"><path
         id="path17"
         d="M 342.91617,298.00178 H 190.208 35.999833 v 12.99042 12.9975 l 175.865937,0.25471 175.60415,0.25472 z"
         style="fill:#cf443c;fill-opacity:1;stroke:none;stroke-width:1.36917;stroke-dasharray:none;stroke-dashoffset:0;stroke-opacity:1" /><path
         id="path18"
         d="m 342.91617,298.00178 44.55375,26.49735 h 0.26886 L 649.62025,180.21066 911.50173,35.915124 l 2.49761,-1.415078 2.49761,-1.422154 -45.49476,-0.02123 -45.50185,-0.0283 -54.99702,30.296828 -55.00409,30.296827 -75.99679,41.872173 -76.00385,41.86509 -62.00166,34.13876 -61.99458,34.14585 -47.54664,26.17894 -47.53955,26.17895 z"
         style="fill:#aa312a;fill-opacity:1;stroke:none;stroke-width:1.36917;stroke-dasharray:none;stroke-dashoffset:0;stroke-opacity:1" /><path
         id="path19"
         style="fill:#a71104;fill-opacity:1;stroke:none;stroke-width:1.36917;stroke-dasharray:none;stroke-dashoffset:0;stroke-opacity:1"
         d="m 255.59169,245.48823 -0.99055,0.5448 -109.30066,-0.0212 -109.300647,-0.0283 v 26.00914 26.00914 H 189.90375 342.61193 Z" /><path
         id="path20"
         style="fill:#a71104;fill-opacity:1;stroke:none;stroke-width:1.36917;stroke-dasharray:none;stroke-dashoffset:0;stroke-opacity:1"
         d="m 255.59169,245.48823 87.02024,52.51355 h 1.20282 l 127.3429,-70.13128 127.3429,-70.12421 89.00135,-49.01123 89.00135,-49.011243 23.49738,-12.983343 23.49738,-12.983344 0.41744,-0.374996 0.41745,-0.382071 -91.91641,0.106131 -91.91642,0.113206 -192.94593,106.40682 z" /><path
         id="path21"
         style="fill:#74211c;fill-opacity:1;stroke:none;stroke-width:1.36917;stroke-dasharray:none;stroke-dashoffset:0;stroke-opacity:1"
         d="m 205.80923,219.95314 -83.56037,0.0212 -87.246657,0.0283 V 325.00148 L 211.25021,324.75384 387.49822,324.5062 211.75256,324.25149 35.999833,323.99677 V 245.9835 l 109.300647,0.0283 106.66861,0.0212 z" /><path
         id="path22"
         style="fill:#962b25;fill-opacity:1;stroke:none;stroke-width:1.36917;stroke-dasharray:none;stroke-dashoffset:0;stroke-opacity:1"
         d="m 205.80923,219.95314 46.15986,26.07989 h 2.63205 l 191.9483,-105.65682 191.9483,-105.656827 0.95518,-0.856122 0.9481,-0.863198 -45.94759,0.03538 -45.95467,0.04245 -169.49809,93.437627 -169.49808,93.43762 z" /></g><g
       id="g28"
       transform="matrix(-0.07303685,0,0,0.07303685,89.53994,154.27944)"
       style="stroke:none;stroke-width:1.36917;stroke-dasharray:none;stroke-dashoffset:0;stroke-opacity:1"><path
         id="path23"
         d="M 342.91617,298.00178 H 190.208 35.999833 v 12.99042 12.9975 l 175.865937,0.25471 175.60415,0.25472 z"
         style="fill:#901109;fill-opacity:1;stroke:none;stroke-width:1.36917;stroke-dasharray:none;stroke-dashoffset:0;stroke-opacity:1" /><path
         id="path24"
         d="m 342.91617,298.00178 44.55375,26.49735 h 0.26886 L 649.62025,180.21066 911.50173,35.915124 l 2.49761,-1.415078 2.49761,-1.422154 -45.49476,-0.02123 -45.50185,-0.0283 -54.99702,30.296828 -55.00409,30.296827 -75.99679,41.872173 -76.00385,41.86509 -62.00166,34.13876 -61.99458,34.14585 -47.54664,26.17894 -47.53955,26.17895 z"
         style="fill:#962b25;fill-opacity:1;stroke:none;stroke-width:1.36917;stroke-dasharray:none;stroke-dashoffset:0;stroke-opacity:1" /><path
         id="path25"
         style="fill:#a71104;fill-opacity:1;stroke:none;stroke-width:1.36917;stroke-dasharray:none;stroke-dashoffset:0;stroke-opacity:1"
         d="m 255.59169,245.48823 -0.99055,0.5448 -109.30066,-0.0212 -109.300647,-0.0283 v 26.00914 26.00914 H 189.90375 342.61193 Z" /><path
         id="path26"
         style="fill:#a71104;fill-opacity:1;stroke:none;stroke-width:1.36917;stroke-dasharray:none;stroke-dashoffset:0;stroke-opacity:1"
         d="m 255.59169,245.48823 87.02024,52.51355 h 1.20282 l 127.3429,-70.13128 127.3429,-70.12421 89.00135,-49.01123 89.00135,-49.011243 23.49738,-12.983343 23.49738,-12.983344 0.41744,-0.374996 0.41745,-0.382071 -91.91641,0.106131 -91.91642,0.113206 -192.94593,106.40682 z" /><path
         id="path27"
         style="fill:#d3524b;fill-opacity:1;stroke:none;stroke-width:1.36917;stroke-dasharray:none;stroke-dashoffset:0;stroke-opacity:1"
         d="m 205.80923,219.95314 -83.56037,0.0212 -87.246657,0.0283 V 325.00148 L 211.25021,324.75384 387.49822,324.5062 211.75256,324.25149 35.999833,323.99677 V 245.9835 l 109.300647,0.0283 106.66861,0.0212 z" /><path
         id="path28"
         style="fill:#aa312a;fill-opacity:1;stroke:none;stroke-width:1.36917;stroke-dasharray:none;stroke-dashoffset:0;stroke-opacity:1"
         d="m 205.80923,219.95314 46.15986,26.07989 h 2.63205 l 191.9483,-105.65682 191.9483,-105.656827 0.95518,-0.856122 0.9481,-0.863198 -45.94759,0.03538 -45.95467,0.04245 -169.49809,93.437627 -169.49808,93.43762 z" /></g><g
       id="g34"
       transform="matrix(-0.07303685,0,0,-0.07303685,89.53994,159.25994)"
       style="stroke:none;stroke-width:1.36917;stroke-dasharray:none;stroke-dashoffset:0;stroke-opacity:1"><path
         id="path29"
         d="M 342.91617,298.00178 H 190.208 35.999833 v 12.99042 12.9975 l 175.865937,0.25471 175.60415,0.25472 z"
         style="fill:#cf443c;fill-opacity:1;stroke:none;stroke-width:1.36917;stroke-dasharray:none;stroke-dashoffset:0;stroke-opacity:1" /><path
         id="path30"
         d="m 342.91617,298.00178 44.55375,26.49735 h 0.26886 L 649.62025,180.21066 911.50173,35.915124 l 2.49761,-1.415078 2.49761,-1.422154 -45.49476,-0.02123 -45.50185,-0.0283 -54.99702,30.296828 -55.00409,30.296827 -75.99679,41.872173 -76.00385,41.86509 -62.00166,34.13876 -61.99458,34.14585 -47.54664,26.17894 -47.53955,26.17895 z"
         style="fill:#db726c;fill-opacity:1;stroke:none;stroke-width:1.36917;stroke-dasharray:none;stroke-dashoffset:0;stroke-opacity:1" /><path
         id="path31"
         style="fill:#a71104;fill-opacity:1;stroke:none;stroke-width:1.36917;stroke-dasharray:none;stroke-dashoffset:0;stroke-opacity:1"
         d="m 255.59169,245.48823 -0.99055,0.5448 -109.30066,-0.0212 -109.300647,-0.0283 v 26.00914 26.00914 H 189.90375 342.61193 Z" /><path
         id="path32"
         style="fill:#a71104;fill-opacity:1;stroke:none;stroke-width:1.36917;stroke-dasharray:none;stroke-dashoffset:0;stroke-opacity:1"
         d="m 255.59169,245.48823 87.02024,52.51355 h 1.20282 l 127.3429,-70.13128 127.3429,-70.12421 89.00135,-49.01123 89.00135,-49.011243 23.49738,-12.983343 23.49738,-12.983344 0.41744,-0.374996 0.41745,-0.382071 -91.91641,0.106131 -91.91642,0.113206 -192.94593,106.40682 z" /><path
         id="path33"
         style="fill:#74211c;fill-opacity:1;stroke:none;stroke-width:1.36917;stroke-dasharray:none;stroke-dashoffset:0;stroke-opacity:1"
         d="m 205.80923,219.95314 -83.56037,0.0212 -87.246657,0.0283 V 325.00148 L 211.25021,324.75384 387.49822,324.5062 211.75256,324.25149 35.999833,323.99677 V 245.9835 l 109.300647,0.0283 106.66861,0.0212 z" /><path
         id="path34"
         style="fill:#790e08;fill-opacity:1;stroke:none;stroke-width:1.36917;stroke-dasharray:none;stroke-dashoffset:0;stroke-opacity:1"
         d="m 205.80923,219.95314 46.15986,26.07989 h 2.63205 l 191.9483,-105.65682 191.9483,-105.656827 0.95518,-0.856122 0.9481,-0.863198 -45.94759,0.03538 -45.95467,0.04245 -169.49809,93.437627 -169.49808,93.43762 z" /></g></g></svg>
