<?xml version="1.0" encoding="UTF-8"?>
<svg width="196.06mm" height="92.422mm" version="1.1" viewBox="0 0 196.06 92.422" xml:space="preserve" xmlns="http://www.w3.org/2000/svg"><g transform="translate(-9.8554 -91.827)" fill-rule="evenodd"><g transform="matrix(.091929 0 0 .1718 109.06 94.401)"><path d="m465.01 485.22h-366.21l-75.757 0.8151v21.193h460.37l272.05 1.0808v-23.358l-290.45 0.26899" fill="#a71104"/><path d="m389.25 468.56h-366.21v17.749l254.87-0.8959h477.54v-16.853h-366.21" fill="#db726c" stroke-width=".90941"/><path d="m650.89 504.11h-359.89l-267.96-0.22777v19.092h719.79v-18.165l-91.933-0.69867" fill="#901109" stroke-width=".91781"/><path d="m907.29 427.95-154.88 47.038-31.54 10.52 13 20.523 194.71-59.132 115.72-33.897-14.328-22.62-122.68 37.568" fill="#a71104" stroke-width=".69883"/><path d="m865.03 421.54-154.88 47.038 5.444 8.5944 5.4435 8.5937 107.25-33.605 201.97-61.338-5.169-8.1603-5.1689-8.1603-154.88 47.038" fill="#db726c" stroke-width=".63552"/><path d="m1002.2 420.95-154.88 47.038-115.46 34.802 11.711 18.489 309.77-94.076-11.143-17.591-39.992 11.339" fill="#901109" stroke-width=".64699"/><path d="m1007.2 240.55v142.94l1 29.569h26v-179.69l1.326-106.18h-28.656l0.33 113.37" fill="#a71104" stroke-width=".69199"/><path d="m986.72 262.43v135.25h21.775l-1.0991-94.128v-135.25l0.8051-50.586h-10.338l-7.9228 6.937-3.2202 137.78" fill="#db726c" stroke-width=".61214"/><path d="m1030.3 165.39v149.56l-0.2795 111.36h23.423v-299.13h-22.286l-0.8571 38.205" fill="#901109" stroke-width=".65534"/></g><g transform="matrix(.091929 0 0 -.1718 109.07 181.71)"><path d="m465.01 485.22h-366.21l-75.757 0.8151v21.193h460.37l272.05 1.0808v-23.358l-290.45 0.26899" fill="#a71104"/><path d="m389.25 468.56h-366.21v17.749l254.87-0.8959h477.54v-16.853h-366.21" fill="#901109" stroke-width=".90941"/><path d="m650.89 504.11h-359.89l-267.96-0.22777v19.092h359.89l360.58-1.3124-0.69004-7.7703v-9.0827l-91.933-0.69867" fill="#db726c" stroke-width=".91781"/><path d="m907.29 427.95-154.88 47.038-31.54 10.52 13 20.523 194.71-59.132 115.72-33.897-14.328-22.62-122.68 37.568" fill="#a71104" stroke-width=".69883"/><path d="m865.03 421.54-154.88 47.038 5.444 8.5944 5.4435 8.5937 107.25-33.605 201.97-61.338-5.169-8.1603-5.1689-8.1603-154.88 47.038" fill="#962b25" stroke-width=".63552"/><path d="m1002.2 420.95-154.88 47.038-115.46 34.802 11.711 18.489 309.77-94.076-11.143-17.591-39.992 11.339" fill="#cf443c" stroke-width=".64699"/><path d="m1007.2 240.55v142.94l1 29.569h26v-179.69l1.326-106.18h-28.656l0.33 113.37" fill="#a71104" stroke-width=".69199"/><path d="m986.72 262.43 3.2529 121.46 8.2856 5.8332 10.236 7.9544-1.0991-94.128v-176.36h-20.676v135.25" fill="#db726c" stroke-width=".61214"/><path d="m1030.3 165.39v149.56l0.6406 96.735c6.6953 5.8619 14.298 10.374 22.502 14.624v-299.13h-22.286l-0.8571 38.205" fill="#901109" stroke-width=".65534"/></g><g transform="matrix(-.099354 0 0 .1718 114.54 94.368)"><path d="m465.01 506.31h-366.21l-75.757-0.8151v-21.193h460.37l272.05-1.0808v23.358l-290.45-0.26899" fill="#a71104"/><path d="m389.25 522.98h-366.21v-17.749l254.87 0.8959h366.21l89.328-2.9166 4.1263 7.6311 9.1696 9.7522-357.5 2.3863" fill="#901109" stroke-width=".90941"/><path d="m650.89 487.42h-359.89l-267.96 0.22777v-19.092h719.79v9.0827l-4.1263 7.2267-87.806 2.5547" fill="#db726c" stroke-width=".91781"/><path d="m907.29 427.95-154.88 47.038-31.54 10.52 13 20.523 194.71-59.132 115.72-33.897-14.328-22.62-122.68 37.568" fill="#a71104" stroke-width=".69883"/><path d="m865.03 421.54-154.88 47.038 5.444 8.5944 5.4435 8.5937 107.25-33.605 201.97-61.338-5.169-8.1603-5.1689-8.1603-154.88 47.038" fill="#db726c" stroke-width=".63552"/><path d="m1002.2 420.95-154.88 47.038-115.46 34.802 11.711 18.489 309.77-94.076-11.143-17.591-39.992 11.339" fill="#901109" stroke-width=".64699"/><path d="m1007.2 240.55v142.94l1 29.569h26v-179.69l1.326-106.18h-28.656l0.33 113.37" fill="#a71104" stroke-width=".69199"/><path d="m986.72 262.43v135.25h21.775l-1.0991-94.128v-135.25l0.8051-50.586h-10.338l-7.9228 6.937-3.2202 137.78" fill="#db726c" stroke-width=".61214"/><path d="m1030.3 165.39v149.56l-0.2795 111.36h23.423v-299.13h-22.286l-0.8571 38.205" fill="#901109" stroke-width=".65534"/></g><g transform="matrix(-.099354 0 0 -.1718 114.52 181.67)"><path d="m465.01 506.31h-366.21l-75.757-0.8151v-21.193h460.37l272.05-1.0808v23.358l-290.45-0.26899" fill="#a71104"/><path d="m389.25 522.98h-366.21v-17.749l254.87 0.8959h366.21l90.703 0.53029 6.8772 7.8962 2.7509 8.1614-355.21 0.26515" fill="#db726c" stroke-width=".90941"/><path d="m650.89 487.42h-359.89l-267.96 0.22777v-19.092h359.89l360.58 1.3124-0.69004 7.7703v9.0827l-91.933 0.69867" fill="#901109" stroke-width=".91781"/><path d="m907.29 427.95-154.88 47.038-31.54 10.52 13 20.523 194.71-59.132 115.72-33.897-14.328-22.62-122.68 37.568" fill="#a71104" stroke-width=".69883"/><path d="m865.03 421.54-154.88 47.038 5.444 8.5944 5.4435 8.5937 107.25-33.605 201.97-61.338-5.169-8.1603-5.1689-8.1603-154.88 47.038" fill="#962b25" stroke-width=".63552"/><path d="m1002.2 420.95-154.88 47.038-115.46 34.802 11.711 18.489 309.77-94.076-11.143-17.591-39.992 11.339" fill="#cf443c" stroke-width=".64699"/><path d="m1007.2 240.55v142.94l1 29.569h26v-179.69l1.326-106.18h-28.656l0.33 113.37" fill="#a71104" stroke-width=".69199"/><path d="m986.72 262.43 3.2529 121.46 8.2856 5.8332 10.236 7.9544-1.0991-94.128v-176.36h-20.676v135.25" fill="#db726c" stroke-width=".61214"/><path d="m1030.3 165.39v149.56l0.6406 96.735c6.6953 5.8619 14.298 10.374 22.502 14.624v-299.13h-22.286l-0.8571 38.205" fill="#901109" stroke-width=".65534"/></g></g></svg>
